<?xml version="1.0" encoding="utf-8"?>
<!-- Generator: Adobe Illustrator 16.0.4, SVG Export Plug-In . SVG Version: 6.00 Build 0)  -->
<!DOCTYPE svg PUBLIC "-//W3C//DTD SVG 1.1//EN" "http://www.w3.org/Graphics/SVG/1.1/DTD/svg11.dtd">
<svg version="1.1" id="Layer_1" xmlns="http://www.w3.org/2000/svg" xmlns:xlink="http://www.w3.org/1999/xlink" x="0px" y="0px"
	 width="500px" height="200px" viewBox="0 0 500 200" enable-background="new 0 0 500 200" xml:space="preserve">
<g>
	<path fill="none" stroke="#FFFFFF" stroke-width="3" stroke-miterlimit="10" d="M25.851,125.247c5.185,0,8.939,2.64,11.265,7.92
		h0.4c0.455-4.307,1.056-8.114,1.805-11.42l3.125-14.92h6.654l-13.228,64.846H30.3l0.882-8.706h-0.321
		c-2.699,3.473-5.224,5.93-7.576,7.374c-2.352,1.443-4.784,2.166-7.296,2.166c-3.714,0-6.614-1.36-8.699-4.084
		c-2.084-2.722-3.126-6.5-3.126-11.336c0-5.945,0.961-11.391,2.885-16.335c1.924-4.945,4.524-8.766,7.798-11.461
		C18.121,126.595,21.789,125.247,25.851,125.247z M18.235,166.717c2.512,0,5.104-1.3,7.776-3.897
		c2.672-2.599,4.79-5.918,6.353-9.961c1.565-4.043,2.345-8.163,2.345-12.356c0-3.085-0.721-5.432-2.164-7.044
		c-1.444-1.61-3.542-2.417-6.293-2.417c-2.699,0-5.206,1.146-7.516,3.438c-2.313,2.292-4.169,5.516-5.571,9.669
		c-1.404,4.153-2.105,8.521-2.105,13.106C11.06,163.562,13.451,166.717,18.235,166.717z"/>
	<path fill="none" stroke="#FFFFFF" stroke-width="3" stroke-miterlimit="10" d="M67.341,172.507c-4.918,0-8.78-1.511-11.585-4.539
		c-2.806-3.028-4.209-7.225-4.209-12.586c0-5.225,0.994-10.233,2.987-15.026c1.989-4.792,4.628-8.522,7.915-11.19
		c3.288-2.668,6.909-4,10.863-4c4.088,0,7.162,0.924,9.22,2.771c2.057,1.847,3.087,4.424,3.087,7.731c0,5-2.218,8.925-6.654,11.773
		c-4.437,2.848-10.783,4.271-19.041,4.271h-1.323l-0.16,3.335c0,3.64,0.821,6.479,2.465,8.521c1.645,2.042,4.189,3.065,7.636,3.065
		c1.684,0,3.415-0.25,5.191-0.749c1.777-0.501,3.989-1.418,6.635-2.751v6.083c-2.513,1.224-4.73,2.078-6.654,2.562
		C71.79,172.263,69.665,172.507,67.341,172.507z M72.913,131.124c-2.753,0-5.339,1.306-7.758,3.919
		c-2.418,2.61-4.269,6.235-5.551,10.875h0.48c6.093,0,10.764-0.825,14.01-2.479c3.247-1.653,4.871-4.05,4.871-7.189
		c0-1.473-0.489-2.693-1.464-3.667C76.526,131.611,74.996,131.124,72.913,131.124z"/>
	<path fill="none" stroke="#FFFFFF" stroke-width="3" stroke-miterlimit="10" d="M97.043,171.673l-5.011-45.675h6.733l2.566,25.549
		c0.642,7.168,0.962,12.197,0.962,15.087h0.242c3.393-7.642,5.784-12.797,7.174-15.465l13.028-25.171h7.135l-23.69,45.675H97.043z"
		/>
</g>
<path fill="none" stroke="#FFFFFF" stroke-width="3" stroke-miterlimit="10" d="M286.23,28.452h-44.703l-9.487,15.174
	l-18.877,68.143l-23.546-83.317h-44.619l-9.486,15.174v128.937h29.689l9.485-15.176v-39.23l14.859,54.406h31.893l9.487-15.176
	l15.357-56.882c-0.103,2.54-0.171,4.478-0.199,5.737c-0.083,3.586-0.127,6.85-0.127,9.789v56.532h30.789l9.485-15.176V28.452z"/>
<path fill="none" stroke="#FFFFFF" stroke-width="3" stroke-miterlimit="10" d="M282.512,163.194v8.418h40.123
	c20.641,0,36.066-6.432,48.053-17.459c18.387-16.92,26.578-44.554,26.578-64.916c0-19.99-5.415-35.276-16.243-45.859
	c-10.83-10.583-26.2-15.875-46.104-15.875h-42.922l-6.048,9.675 M325.771,70.81c9.164,0,15.991,2.852,20.485,8.555
	c4.498,5.705,6.746,14.463,6.746,26.282c0,6.643-0.674,12.365-1.985,17.215c-4.552,3.325-10.56,5.005-18.051,5.005h-7.464V70.81
	H325.771z"/>
<path fill="none" stroke="#FFFFFF" stroke-width="3" stroke-miterlimit="10" d="M392.522,120.162v51.454h48.266
	c14.59,0,25.262-4.599,34.567-10.1c16.617-9.819,22.166-31.965,22.166-42.821c0-7.879-1.726-14.287-5.173-19.226
	c-2.473-3.541-6.058-6.344-10.709-8.432c1.28-2.273,6.56-10.73,8.077-12.91c3.564-5.117,5.347-11.289,5.347-18.521
	c0-10.995-4.088-19.094-12.259-24.298c-8.171-5.202-20.685-7.804-37.537-7.804h-43.26l-9.485,15.174v16.669 M450.678,76.465
	c-1.542,0.311-3.199,0.515-5.071,0.515h-10.093v-7.928C444.144,69.066,449.16,71.562,450.678,76.465z M437.142,117.642
	c5.313,0,9.371,1.147,12.171,3.44c2.312,1.893,3.615,4.51,4.017,7.77c-1.778,0.433-3.755,0.69-6.025,0.69h-11.79v-11.9H437.142z"/>
<g>
	<path fill="none" stroke="#FFFFFF" stroke-width="3" stroke-miterlimit="10" d="M402.008,27.979h43.26
		c16.853,0,29.366,2.601,37.537,7.804c8.171,5.204,12.259,13.303,12.259,24.297c0,7.232-1.782,13.405-5.347,18.521
		c-3.562,5.116-8.257,8.408-14.08,9.878v0.881c7.69,2.116,13.261,5.643,16.712,10.583c3.447,4.938,5.173,11.346,5.173,19.225
		c0,11.7-4.229,20.917-12.681,27.649c-8.455,6.731-19.977,10.096-34.565,10.096h-48.268V27.979z M435.514,77.454h10.093
		c4.808,0,8.526-1.028,11.155-3.087c2.631-2.057,3.946-5.116,3.946-9.172c0-7.231-5.26-10.847-15.779-10.847h-9.415V77.454z
		 M435.514,102.941v27.074h11.79c10.46,0,15.692-4.586,15.692-13.757c0-4.291-1.399-7.585-4.196-9.878
		c-2.802-2.293-6.857-3.439-12.173-3.439H435.514z"/>
</g>
<g>
	<path fill="none" stroke="#FFFFFF" stroke-width="3" stroke-miterlimit="10" d="M397.74,89.712c0,21.519-5.699,38.098-17.093,49.74
		c-11.395,11.642-27.413,17.462-48.053,17.462h-40.123V27.979h42.92c19.905,0,35.275,5.291,46.106,15.874
		C392.324,54.436,397.74,69.723,397.74,89.712z M362.963,90.946c0-11.817-2.248-20.577-6.747-26.28
		c-4.494-5.703-11.321-8.555-20.483-8.555h-9.757v72.229h7.467c10.181,0,17.644-3.071,22.394-9.215
		C360.586,112.98,362.963,103.588,362.963,90.946z"/>
</g>
<g>
	<path fill="none" stroke="#FFFFFF" stroke-width="3" stroke-miterlimit="10" d="M199.03,157.388l-25.361-92.865h-0.764
		c1.187,15.816,1.782,28.104,1.782,36.864v56.001h-29.69V28.452h44.621l25.87,91.543h0.678l25.362-91.543h44.703v128.936h-30.789
		v-56.53c0-2.939,0.044-6.203,0.127-9.789c0.084-3.586,0.467-12.375,1.145-26.369h-0.761l-25.027,92.688H199.03z"/>
</g>
<line fill="#FFFFFF" stroke="#FFFFFF" stroke-width="3" stroke-miterlimit="10" x1="245.956" y1="172.563" x2="255.441" y2="157.388"/>
<line fill="none" stroke="#FFFFFF" stroke-width="3" stroke-miterlimit="10" x1="402.008" y1="156.914" x2="392.522" y2="171.616"/>
<line fill="none" stroke="#FFFFFF" stroke-width="3" stroke-miterlimit="10" x1="292.827" y1="156.56" x2="283.342" y2="171.26"/>
<line fill="none" stroke="#FFFFFF" stroke-width="3" stroke-miterlimit="10" x1="145.594" y1="156.914" x2="136.108" y2="171.616"/>
<line fill="none" stroke="#FFFFFF" stroke-width="3" stroke-miterlimit="10" x1="198.939" y1="157.626" x2="189.454" y2="172.328"/>
</svg>